<svg width="20" height="20" viewBox="0 0 20 20" fill="none" xmlns="http://www.w3.org/2000/svg">
<path d="M13.981 2H6.01801C6.01801 2 5.02201 2 5.02201 3H14.977C14.977 2 13.981 2 13.981 2ZM16.968 5C16.968 4 15.973 4 15.973 4H4.02701C4.02701 4 3.03201 4 3.03201 5V6H16.968V5ZM18.958 6L18.37 5.408V7H1.63001V5.408L1.04101 6C0.45201 6.592 0.0300101 6.75 0.26701 8C0.50301 9.246 1.64601 16.076 1.81601 17C2.00201 18.014 3.03301 18 3.03301 18H16.969C16.969 18 17.999 18.014 18.186 17C18.356 16.076 19.498 9.246 19.735 8C19.97 6.75 19.548 6.592 18.958 6ZM14 11.997C14 12.551 13.551 13 12.997 13H7.00301C6.737 13 6.48188 12.8943 6.29378 12.7062C6.10568 12.5181 6.00001 12.263 6.00001 11.997V10H7.00001V12H13V10H14V11.997Z" fill="white"/>
</svg>
