<svg width="20" height="20" viewBox="0 0 20 20" fill="none" xmlns="http://www.w3.org/2000/svg">
<path d="M18 17.88V20L16.2 18.83L11.41 9.83C12.0665 9.62425 12.6727 9.28364 13.19 8.83M13 5C13 5.79565 12.6839 6.55871 12.1213 7.12132C11.5587 7.68393 10.7956 8 9.99998 8C9.85347 8.00988 9.70648 8.00988 9.55998 8L3.79998 18.83L1.99998 20V17.88L7.78998 7C7.40533 6.57 7.15284 6.03821 7.06275 5.46836C6.97265 4.8985 7.04879 4.31476 7.28202 3.78708C7.51526 3.25939 7.89571 2.81015 8.37777 2.49319C8.85983 2.17623 9.42307 2.00499 9.99998 2V0C10.2652 0 10.5195 0.105357 10.7071 0.292893C10.8946 0.48043 11 0.734784 11 1V2.18C11.5835 2.38631 12.089 2.76807 12.447 3.27293C12.8051 3.7778 12.9982 4.38106 13 5ZM11 5C11 4.80222 10.9413 4.60888 10.8314 4.44443C10.7216 4.27998 10.5654 4.15181 10.3827 4.07612C10.1999 4.00043 9.99887 3.98063 9.80489 4.01921C9.6109 4.0578 9.43272 4.15304 9.29287 4.29289C9.15302 4.43275 9.05778 4.61093 9.01919 4.80491C8.9806 4.99889 9.00041 5.19996 9.0761 5.38268C9.15178 5.56541 9.27996 5.72159 9.4444 5.83147C9.60885 5.94135 9.80219 6 9.99998 6C10.2652 6 10.5195 5.89464 10.7071 5.70711C10.8946 5.51957 11 5.26522 11 5ZM2.21998 8L3.99998 9.8L2.55998 12.56L0.0999756 10.1M9.99998 15.76L8.49998 14.25L6.99998 17L9.99998 20L13 17L11.53 14.23M17.78 8L16 9.8L17.5 12.56L19.9 10.1L17.78 8Z" fill="white"/>
</svg>
