<svg xmlns="http://www.w3.org/2000/svg" width="10.202" height="9.226" viewBox="0 0 10.202 9.226">
    <defs>
        <style>
            .cls-1{fill:#fff}
        </style>
    </defs>
    <g id="Group_2091" data-name="Group 2091" transform="translate(-161 -379.739)">
        <path id="Icon_awesome-shopping-cart" data-name="Icon awesome-shopping-cart" class="cls-1" d="m2.466 1.407.22-.971A.112.112 0 0 0 2.577.3H.743L.7.09A.112.112 0 0 0 .591 0H.112A.112.112 0 0 0 0 .112v.075A.112.112 0 0 0 .112.3h.326l.328 1.6a.261.261 0 1 0 .313.04h.979a.261.261 0 1 0 .3-.049l.026-.113a.112.112 0 0 0-.109-.137H1.018l-.03-.147h1.368a.112.112 0 0 0 .11-.087z" transform="translate(162.084 382.26)"/>
        <path id="Icon_awesome-globe-americas" data-name="Icon awesome-globe-americas" class="cls-1" d="M1.16.563a1.16 1.16 0 1 0 1.16 1.16A1.16 1.16 0 0 0 1.16.563zm.385 1.673-.053.053a.112.112 0 0 0-.029.05c-.007.026-.013.053-.022.079l-.081.219a.935.935 0 0 1-.2.022V2.53a.35.35 0 0 0-.106-.24.15.15 0 0 1-.044-.106v-.15A.149.149 0 0 0 .934 1.9c-.068-.033-.163-.085-.229-.118a.674.674 0 0 1-.148-.1.537.537 0 0 1-.084-.1l-.166-.241A.941.941 0 0 1 .79.864L.9.92a.075.075 0 0 0 .111-.067V.8a.935.935 0 0 1 .114-.011l.132.132a.075.075 0 0 1 0 .106l-.022.022-.048.051a.037.037 0 0 0 0 .053l.022.022a.037.037 0 0 1 0 .053l-.037.037a.037.037 0 0 1-.026.011H1.1a.037.037 0 0 0-.026.011l-.046.045a.037.037 0 0 0-.007.044l.073.146a.037.037 0 0 1-.033.054h-.025a.037.037 0 0 1-.025-.009l-.043-.041A.075.075 0 0 0 .9 1.512l-.151.048a.056.056 0 0 0-.007.1l.052.026a.317.317 0 0 0 .142.033c.049 0 .106.128.15.15H1.4a.15.15 0 0 1 .106.044l.064.064a.143.143 0 0 1 .042.1.218.218 0 0 1-.064.154zm.406-.427a.112.112 0 0 1-.066-.047L1.8 1.635a.112.112 0 0 1 0-.125l.092-.137a.112.112 0 0 1 .043-.038L2 1.3a.906.906 0 0 1 .091.537z" transform="translate(165.131 381.554)"/>
        <path id="tool" class="cls-1" d="m1.695.364-.284.284-.248-.089-.089-.248.284-.283a.534.534 0 0 0-.68.666l-.022.02-.583.586a.25.25 0 0 0 .353.353l.583-.583.02-.022a.534.534 0 0 0 .666-.68z" transform="rotate(-16 1439.187 -389.092)"/>
        <path id="Icon_metro-zoom-in" data-name="Icon metro-zoom-in" class="cls-1" d="m5.111 4.159-.621-.528a.277.277 0 0 0-.19-.082.983.983 0 1 0-.11.11.277.277 0 0 0 .082.188l.528.621a.22.22 0 1 0 .309-.309zm-1.557-.592a.655.655 0 1 1 .655-.655.655.655 0 0 1-.655.655zm.164-1.147H3.39v.328h-.328v.328h.328V3.4h.328v-.325h.328v-.328h-.328z" transform="translate(165.206 380.188)"/>
        <g id="Group_2088" data-name="Group 2088" transform="translate(161 379.739)">
            <path id="Path_1260" data-name="Path 1260" class="cls-1" d="M122.5 70.141V73.4h.364v-2.976a.166.166 0 0 1 .182-.141h8.381a.212.212 0 0 1 .129.041.128.128 0 0 1 .053.1V73.4h.364v-3.259a.128.128 0 0 0-.053-.1.212.212 0 0 0-.129-.041h-9.109a.166.166 0 0 0-.182.141z" transform="translate(-122.175 -69.271)"/>
            <path id="Path_1262" data-name="Path 1262" class="cls-1" d="M280 35.364h2.915v-.182a.182.182 0 0 0-.182-.182h-2.551a.182.182 0 0 0-.182.182z" transform="translate(-276.423 -35)"/>
            <path id="Path_1266" data-name="Path 1266" d="M280 36.928h5v-.964a2.318 2.318 0 0 0-.091-.682c-.059-.181-.138-.282-.221-.282h-4.374c-.173 0-.312.432-.312.964z" transform="translate(-277.459 -30.511)" style="fill:#fff"/>
            <path id="Path_1263" data-name="Path 1263" class="cls-1" d="M105 297.682v4.372a.182.182 0 0 0 .182.182h9.838a.182.182 0 0 0 .182-.182v-4.372a.182.182 0 0 0-.182-.182h-9.838a.182.182 0 0 0-.182.182zm3.462.182h3.279a.547.547 0 1 1 0 1.093h-3.279a.547.547 0 1 1 0-1.093z" transform="translate(-105 -293.011)"/>
            <path id="Path_1265" data-name="Path 1265" class="cls-1" d="M262.682 332.864h3.279a.182.182 0 1 0 0-.364h-3.279a.182.182 0 0 0 0 .364z" transform="translate(-259.248 -327.283)"/>
        </g>
    </g>
</svg>
