<svg width="26" height="24" viewBox="0 0 26 24" fill="none" xmlns="http://www.w3.org/2000/svg">
<rect width="18" height="24" rx="1" fill="#707070"/>
<path d="M19.2428 14.4287C19.4649 14.562 19.752 14.5036 19.9044 14.2941L19.5 14L19.9044 14.294L19.9045 14.2938L19.9051 14.2931L19.9072 14.2902L19.9158 14.2784L19.9493 14.2324L20.0769 14.0572C20.1871 13.9061 20.3452 13.6895 20.5364 13.428C20.9189 12.9049 21.434 12.2025 21.9646 11.4847C22.4954 10.7665 23.0407 10.0343 23.484 9.45097C23.9413 8.84927 24.2591 8.44805 24.3535 8.35357C24.6052 8.10188 24.6808 7.76873 24.6792 7.47555C24.6776 7.1801 24.5995 6.87162 24.482 6.5854C24.2493 6.01874 23.8154 5.42876 23.2698 5.07906C22.7686 4.75778 22.1715 4.61095 21.6256 4.61494C21.0928 4.61883 20.5237 4.76919 20.1464 5.14645C20.0767 5.21617 20.0124 5.30756 19.9607 5.38602C19.9037 5.47266 19.8403 5.57755 19.7727 5.69486C19.6374 5.92993 19.4753 6.23244 19.2981 6.57498C18.9432 7.26103 18.5189 8.12545 18.112 8.97059C17.7047 9.81649 17.3133 10.6463 17.0238 11.2645C16.879 11.5736 16.7596 11.83 16.6764 12.0091L16.5801 12.2168L16.5548 12.2716L16.5483 12.2856L16.5466 12.2892L16.5462 12.2901L16.5461 12.2904L17 12.5L16.546 12.2905C16.439 12.5223 16.5239 12.7974 16.7428 12.9287L19.2428 14.4287Z" fill="#707070" stroke="white" stroke-linejoin="round"/>
<line x1="3.5" y1="3.5" x2="14.5" y2="3.5" stroke="white" stroke-linecap="round"/>
<line x1="3.5" y1="6.5" x2="14.5" y2="6.5" stroke="white" stroke-linecap="round"/>
<line x1="3.5" y1="9.5" x2="14.5" y2="9.5" stroke="white" stroke-linecap="round"/>
<line x1="3.5" y1="12.5" x2="8.5" y2="12.5" stroke="white" stroke-linecap="round"/>
<circle cx="5" cy="19" r="2" stroke="white" stroke-width="2"/>
<rect x="11.9772" y="10.9661" width="12.7902" height="3.5" rx="1.75" transform="rotate(30 11.9772 10.9661)" fill="#707070" stroke="white" stroke-width="1.5"/>
<rect x="11.6799" y="14.8205" width="9.03818" height="2.72597" rx="1.36299" transform="rotate(30 11.6799 14.8205)" fill="#707070" stroke="white"/>
</svg>
