<svg width="24" height="24" viewBox="0 0 24 24" fill="none" xmlns="http://www.w3.org/2000/svg">
<rect width="24" height="24" fill="white"/>
<g clip-path="url(#clip0_705_2828)">
<path d="M8.47064 6.69116H3V11.9184H8.47064V6.69116Z" fill="#707070"/>
<path d="M6.0545 10.3971H5.6825V8.06509L5.1745 8.26509L5.1145 7.92909L5.7625 7.69709H6.0545V10.3971Z" fill="white"/>
<path d="M14.2079 6.69116H8.7373V11.9184H14.2079V6.69116Z" fill="#707070"/>
<path d="M12.2467 8.00909C12.0867 8.35309 11.9334 8.74376 11.7867 9.18109C11.6427 9.61843 11.5307 10.0238 11.4507 10.3971H11.0427C11.1387 9.99709 11.2627 9.57576 11.4147 9.13309C11.5694 8.69043 11.7121 8.32643 11.8427 8.04109C11.7601 8.04643 11.3601 8.04909 10.6427 8.04909V7.69709H12.2467V8.00909Z" fill="white"/>
<path d="M20.0001 6.69116H14.5294V11.9184H20.0001V6.69116Z" fill="#707070"/>
<path d="M17.9824 9.58509C17.9824 9.83043 17.8837 10.0331 17.6864 10.1931C17.489 10.3504 17.2384 10.4291 16.9344 10.4291C16.753 10.4291 16.6077 10.4144 16.4984 10.3851L16.5384 10.0611C16.6504 10.0984 16.789 10.1171 16.9544 10.1171C17.149 10.1171 17.3037 10.0691 17.4184 9.97309C17.5357 9.87443 17.5944 9.75176 17.5944 9.60509C17.5944 9.46109 17.533 9.34643 17.4104 9.26109C17.2904 9.17576 17.117 9.13309 16.8904 9.13309C16.8264 9.13309 16.7437 9.13843 16.6424 9.14909V8.85709C17.2104 8.87309 17.4944 8.70643 17.4944 8.35709C17.4944 8.23443 17.4557 8.13843 17.3784 8.06909C17.301 7.99976 17.1917 7.96509 17.0504 7.96509C16.885 7.96509 16.729 8.00509 16.5824 8.08509L16.5504 7.77709C16.7317 7.69976 16.925 7.66109 17.1304 7.66109C17.373 7.66109 17.557 7.71976 17.6824 7.83709C17.8104 7.95443 17.8744 8.10509 17.8744 8.28909C17.8744 8.44109 17.833 8.57443 17.7504 8.68909C17.6704 8.80109 17.561 8.88243 17.4224 8.93309L17.4184 8.94109C17.5864 8.97843 17.7224 9.05443 17.8264 9.16909C17.9304 9.28376 17.9824 9.42243 17.9824 9.58509Z" fill="white"/>
<path d="M8.47064 12.2319H3V17.4591H8.47064V12.2319Z" fill="#707070"/>
<path d="M6.48879 15.046C6.48879 15.3207 6.38746 15.5433 6.18479 15.714C5.98479 15.8847 5.72612 15.97 5.40879 15.97C5.27546 15.97 5.14212 15.9567 5.00879 15.93L5.04879 15.602C5.15812 15.6367 5.28746 15.654 5.43679 15.654C5.64479 15.654 5.80879 15.6033 5.92879 15.502C6.04879 15.398 6.10879 15.2607 6.10879 15.09C6.10879 14.7567 5.84879 14.59 5.32879 14.59C5.22479 14.59 5.14879 14.5927 5.10079 14.598V13.238H6.34479V13.582H5.44079V14.294C5.79012 14.2913 6.05146 14.3553 6.22479 14.486C6.40079 14.6167 6.48879 14.8033 6.48879 15.046Z" fill="white"/>
<path d="M8.47064 17.7728H3V23H8.47064V17.7728Z" fill="#707070"/>
<path d="M6.60257 19.9028C6.60257 20.4334 6.47991 20.8348 6.23457 21.1068C5.99191 21.3788 5.65857 21.5148 5.23457 21.5148C5.11191 21.5148 5.00391 21.5068 4.91057 21.4908V21.1548C5.01724 21.1841 5.13857 21.1988 5.27457 21.1988C5.76524 21.1988 6.06124 20.9334 6.16257 20.4028C6.17057 20.3761 6.17857 20.3401 6.18657 20.2948C6.19724 20.2494 6.20391 20.2201 6.20657 20.2068L6.20257 20.2028C6.14391 20.2881 6.05857 20.3588 5.94657 20.4148C5.83724 20.4681 5.71057 20.4948 5.56657 20.4948C5.31857 20.4948 5.12124 20.4214 4.97457 20.2748C4.82791 20.1281 4.75457 19.9308 4.75457 19.6828C4.75457 19.4161 4.84124 19.1934 5.01457 19.0148C5.19057 18.8334 5.41724 18.7428 5.69457 18.7428C5.83857 18.7428 5.96524 18.7681 6.07457 18.8188C6.18657 18.8694 6.27457 18.9334 6.33857 19.0108C6.40524 19.0881 6.45857 19.1801 6.49857 19.2868C6.53857 19.3934 6.56524 19.4961 6.57857 19.5948C6.59457 19.6934 6.60257 19.7961 6.60257 19.9028ZM6.19457 19.6628C6.19457 19.4734 6.14657 19.3241 6.05057 19.2148C5.95724 19.1028 5.82791 19.0468 5.66257 19.0468C5.50791 19.0468 5.37991 19.1001 5.27857 19.2068C5.17991 19.3134 5.13057 19.4534 5.13057 19.6268C5.13057 19.7948 5.17591 19.9308 5.26657 20.0348C5.35724 20.1361 5.48657 20.1868 5.65457 20.1868C5.81191 20.1868 5.94124 20.1348 6.04257 20.0308C6.14391 19.9268 6.19457 19.8041 6.19457 19.6628Z" fill="white"/>
<path d="M14.2353 17.7728H8.76465V23H14.2353V17.7728Z" fill="#707070"/>
<path d="M12.4814 20.8468H12.0294V21.4788H11.6734V20.8468H10.4774L10.4534 20.5668L11.5454 18.7788H12.0294V20.5188H12.4814V20.8468ZM11.6774 20.5228V19.1188H11.6734L10.8054 20.5308C10.9627 20.5254 11.2534 20.5228 11.6774 20.5228Z" fill="white"/>
<path d="M20.0001 17.7728H14.5294V23H20.0001V17.7728Z" fill="#707070"/>
<path d="M18.1084 20.7868C18.1084 21.0134 18.0217 21.1921 17.8484 21.3228C17.675 21.4534 17.4577 21.5188 17.1964 21.5188C16.9324 21.5188 16.727 21.4574 16.5804 21.3348C16.4337 21.2094 16.3604 21.0454 16.3604 20.8428C16.3604 20.6908 16.4084 20.5574 16.5044 20.4428C16.603 20.3254 16.7364 20.2134 16.9044 20.1068C16.7364 20.0108 16.611 19.9094 16.5284 19.8028C16.4457 19.6961 16.4044 19.5748 16.4044 19.4388C16.4044 19.2254 16.483 19.0534 16.6404 18.9228C16.8004 18.7921 17.011 18.7268 17.2724 18.7268C17.5097 18.7268 17.699 18.7868 17.8404 18.9068C17.9817 19.0268 18.0524 19.1801 18.0524 19.3668C18.0524 19.5108 18.007 19.6361 17.9164 19.7428C17.8257 19.8468 17.6977 19.9534 17.5324 20.0628C17.9164 20.2708 18.1084 20.5121 18.1084 20.7868ZM17.6764 19.3988C17.6764 19.2894 17.6377 19.1988 17.5604 19.1268C17.4857 19.0548 17.3777 19.0188 17.2364 19.0188C17.095 19.0188 16.9817 19.0534 16.8964 19.1228C16.8137 19.1921 16.7724 19.2841 16.7724 19.3988C16.7724 19.5001 16.8097 19.5894 16.8844 19.6668C16.9617 19.7441 17.0804 19.8254 17.2404 19.9108C17.3977 19.8121 17.5097 19.7254 17.5764 19.6508C17.643 19.5734 17.6764 19.4894 17.6764 19.3988ZM17.7284 20.8228C17.7284 20.7588 17.715 20.7001 17.6884 20.6468C17.6617 20.5908 17.619 20.5401 17.5604 20.4948C17.5044 20.4468 17.4497 20.4068 17.3964 20.3748C17.3457 20.3401 17.279 20.3014 17.1964 20.2588C17.0497 20.3468 16.9364 20.4321 16.8564 20.5148C16.779 20.5974 16.7404 20.6948 16.7404 20.8068C16.7404 20.9321 16.7844 21.0321 16.8724 21.1068C16.963 21.1788 17.0844 21.2148 17.2364 21.2148C17.3777 21.2148 17.495 21.1801 17.5884 21.1108C17.6817 21.0414 17.7284 20.9454 17.7284 20.8228Z" fill="white"/>
<path d="M14.2079 12.2319H8.7373V17.4591H14.2079V12.2319Z" fill="#707070"/>
<path d="M12.4016 15.038C12.4016 15.31 12.3136 15.5353 12.1376 15.714C11.9616 15.89 11.7336 15.978 11.4536 15.978C11.3122 15.978 11.1869 15.9527 11.0776 15.902C10.9682 15.8513 10.8816 15.7873 10.8176 15.71C10.7536 15.6327 10.7002 15.5407 10.6576 15.434C10.6176 15.3273 10.5896 15.2247 10.5736 15.126C10.5602 15.0273 10.5536 14.9233 10.5536 14.814C10.5536 14.278 10.6802 13.8767 10.9336 13.61C11.1869 13.3407 11.5149 13.206 11.9176 13.206C12.0269 13.206 12.1069 13.21 12.1576 13.218V13.538C12.0882 13.5247 12.0002 13.518 11.8936 13.518C11.3842 13.518 11.0749 13.7967 10.9656 14.354L10.9336 14.522L10.9376 14.526C11.0842 14.3313 11.3002 14.234 11.5856 14.234C11.8362 14.234 12.0349 14.3073 12.1816 14.454C12.3282 14.6007 12.4016 14.7953 12.4016 15.038ZM12.0256 15.094C12.0256 14.9233 11.9789 14.7873 11.8856 14.686C11.7949 14.5847 11.6656 14.534 11.4976 14.534C11.3376 14.534 11.2069 14.586 11.1056 14.69C11.0042 14.7913 10.9536 14.914 10.9536 15.058C10.9536 15.2447 11.0002 15.394 11.0936 15.506C11.1896 15.6153 11.3202 15.67 11.4856 15.67C11.6456 15.67 11.7749 15.618 11.8736 15.514C11.9749 15.4073 12.0256 15.2673 12.0256 15.094Z" fill="white"/>
<path d="M20.0001 12.2319H14.5294V17.4591H20.0001V12.2319Z" fill="#707070"/>
<path d="M18.051 15.938H16.479V15.642L16.987 15.058C17.2057 14.8073 17.355 14.6033 17.435 14.446C17.5177 14.2887 17.559 14.1353 17.559 13.986C17.559 13.85 17.5177 13.7393 17.435 13.654C17.355 13.566 17.239 13.522 17.087 13.522C16.9083 13.522 16.7323 13.5767 16.559 13.686L16.507 13.358C16.715 13.254 16.9403 13.202 17.183 13.202C17.4257 13.202 17.6137 13.27 17.747 13.406C17.883 13.542 17.951 13.7167 17.951 13.93C17.951 14.1167 17.9017 14.306 17.803 14.498C17.7043 14.6873 17.535 14.918 17.295 15.19L16.939 15.606V15.61C17.1523 15.5993 17.523 15.594 18.051 15.594V15.938Z" fill="white"/>
<path d="M11.9513 5.87434H10.9939C10.9335 5.87464 10.8751 5.85371 10.8298 5.81553C10.8056 5.8 10.7852 5.77973 10.7699 5.75607C10.7546 5.73241 10.7447 5.70591 10.7409 5.67832L10.6315 5.22094C10.4891 5.16343 10.3538 5.09112 10.228 5.00531L9.74252 5.14906C9.68679 5.16524 9.62729 5.16524 9.57156 5.14906C9.51633 5.12761 9.46882 5.09129 9.43479 5.04452L8.95611 4.26697C8.93569 4.21427 8.93569 4.15632 8.95611 4.10362C8.96396 4.04767 8.99319 3.99647 9.03817 3.95987L9.41428 3.64624C9.39375 3.50316 9.39375 3.35808 9.41428 3.215L9.03817 2.89483C9.01528 2.87865 8.99616 2.8581 8.98203 2.83448C8.9679 2.81085 8.95908 2.78468 8.95611 2.75762C8.93569 2.70491 8.93569 2.64697 8.95611 2.59427L9.43479 1.82979C9.46842 1.7811 9.51585 1.74257 9.57156 1.71871C9.62671 1.6992 9.68736 1.6992 9.74252 1.71871L10.228 1.86246C10.2915 1.81733 10.3577 1.77588 10.4263 1.73831L10.6315 1.64684L10.7409 1.18292C10.7542 1.12919 10.7854 1.08103 10.8298 1.04571C10.8782 1.01451 10.9356 0.998518 10.9939 0.999969H11.9513C12.0104 1.00043 12.0678 1.01872 12.1154 1.05224C12.1616 1.08722 12.1951 1.13524 12.2111 1.18945L12.3137 1.65337C12.4574 1.70829 12.593 1.78077 12.7172 1.86899L13.2027 1.72524C13.2602 1.70581 13.323 1.70581 13.3805 1.72524C13.4364 1.74259 13.483 1.7801 13.5104 1.82979L13.9891 2.59427C14.0188 2.6424 14.0297 2.69909 14.0197 2.75417C14.0096 2.80925 13.9794 2.85912 13.9344 2.89483L13.5651 3.215C13.5788 3.35845 13.5788 3.50279 13.5651 3.64624L13.9344 3.95987C13.9799 3.99669 14.0104 4.04769 14.0204 4.10388C14.0304 4.16007 14.0193 4.21784 13.9891 4.26697L13.5104 5.03145C13.483 5.08114 13.4364 5.11865 13.3805 5.13599C13.323 5.15543 13.2602 5.15543 13.2027 5.13599L12.7172 4.99225C12.5914 5.07805 12.4561 5.15036 12.3137 5.20787L12.2111 5.66525C12.1988 5.72103 12.1646 5.77016 12.1154 5.80246C12.0701 5.84064 12.0117 5.86157 11.9513 5.86127V5.87434ZM11.4726 2.46359C11.1954 2.46114 10.928 2.56191 10.7272 2.74455C10.6298 2.83361 10.5523 2.9406 10.4993 3.05908C10.4463 3.17755 10.419 3.30505 10.419 3.43389C10.419 3.56272 10.4463 3.69022 10.4993 3.8087C10.5523 3.92717 10.6298 4.03416 10.7272 4.12322C10.9273 4.30768 11.1946 4.41075 11.4726 4.41075C11.7507 4.41075 12.0179 4.30768 12.218 4.12322C12.4112 3.94227 12.5218 3.69567 12.5257 3.43715C12.5229 3.17651 12.4123 2.92751 12.218 2.74455C12.0172 2.56191 11.7498 2.46114 11.4726 2.46359Z" fill="#707070"/>
</g>
<defs>
<clipPath id="clip0_705_2828">
<rect width="17" height="22" fill="white" transform="translate(3 1)"/>
</clipPath>
</defs>
</svg>
