<svg width="28" height="32" viewBox="0 0 28 32" fill="none" xmlns="http://www.w3.org/2000/svg">
<g filter="url(#filter0_d_722_2760)">
<path d="M19.6524 15.6579L19.6522 15.6578L19.6484 15.6625L17.9115 17.7884L14.234 15.698C15.8422 13.7709 16.8458 12.7064 18.8137 11.0842L21.4466 13.717L19.6524 15.6579ZM17.535 18.1696C17.5206 18.1836 17.5048 18.1992 17.4876 18.2165C17.3845 18.32 17.2313 18.484 17.028 18.7284C16.6214 19.217 16.0139 20.0272 15.2056 21.3179C14.8629 21.865 14.5541 22.5279 14.3315 23.0517C14.22 23.3141 14.1298 23.5426 14.0675 23.7055C14.0363 23.7869 14.012 23.8521 13.9956 23.8969L13.9944 23.9H8.28795C8.34605 23.8196 8.42442 23.7111 8.51891 23.58C8.73326 23.2826 9.03058 22.869 9.36248 22.4042C10.0261 21.475 10.8286 20.3405 11.3824 19.5215C11.8993 18.757 12.493 17.9239 12.9578 17.2816C13.1901 16.9605 13.3901 16.6872 13.5321 16.4942C13.603 16.3977 13.6594 16.3213 13.6981 16.2691L13.7078 16.256L17.535 18.1696ZM10.6758 1.8933L13.0956 0.104795L22.7572 1.48503C19.6379 2.78749 17.2937 4.18036 14.8457 6.27696L10.6758 1.8933ZM21.9333 13.3657L19.2983 10.6253C20.7514 9.4074 21.657 8.71599 23.2548 7.60161V12.5524L21.9333 13.3657ZM9.97323 10.801L6.01807 6.41828L10.1909 2.24547L14.3606 6.73598C14.3317 6.75935 14.2959 6.78846 14.2537 6.8228C14.1325 6.92151 13.9594 7.06346 13.7516 7.23654C13.3363 7.58265 12.7823 8.05357 12.228 8.5524C11.6726 9.0523 11.0901 9.63479 10.6471 10.0917C10.4255 10.3203 10.2384 10.5177 10.1068 10.658C10.0523 10.716 10.0073 10.7643 9.97323 10.801ZM4.1 20.932V9.6489L5.67601 6.91715L9.61418 11.3875C6.95035 14.0722 5.87225 16.4659 4.1 20.932Z" fill="#707070" stroke="#707070" stroke-width="0.2"/>
<path d="M20.9354 5.64514C19.9906 6.27502 19.4609 6.62817 18.5161 7.25804M16.0967 9.27417C14.9944 10.3765 14.3764 10.9945 13.2741 12.0968M10.8548 14.5161L8.43542 17.7419" stroke="#707070" stroke-width="0.5" stroke-linejoin="round"/>
</g>
<defs>
<filter id="filter0_d_722_2760" x="-3" y="0" width="32" height="32" filterUnits="userSpaceOnUse" color-interpolation-filters="sRGB">
<feFlood flood-opacity="0" result="BackgroundImageFix"/>
<feColorMatrix in="SourceAlpha" type="matrix" values="0 0 0 0 0 0 0 0 0 0 0 0 0 0 0 0 0 0 127 0" result="hardAlpha"/>
<feOffset dy="4"/>
<feGaussianBlur stdDeviation="2"/>
<feComposite in2="hardAlpha" operator="out"/>
<feColorMatrix type="matrix" values="0 0 0 0 0 0 0 0 0 0 0 0 0 0 0 0 0 0 0.25 0"/>
<feBlend mode="normal" in2="BackgroundImageFix" result="effect1_dropShadow_722_2760"/>
<feBlend mode="normal" in="SourceGraphic" in2="effect1_dropShadow_722_2760" result="shape"/>
</filter>
</defs>
</svg>
