<svg xmlns="http://www.w3.org/2000/svg" width="14.279" height="15.578" viewBox="0 0 14.279 15.578">
    <path data-name="Icon metro-gas-station" d="m21.36 10.088.013-.013-3.224-3.216-.917.917L19.058 9.6a2.16 2.16 0 0 0 .77 4.18 2.138 2.138 0 0 0 .865-.182v6.24a.865.865 0 1 1-1.731 0v-3.892a1.73 1.73 0 0 0-1.731-1.731h-.865V8.158a1.73 1.73 0 0 0-1.731-1.731H9.443a1.73 1.73 0 0 0-1.731 1.731V22h8.654v-6.486h1.3v4.327a2.164 2.164 0 0 0 4.327 0v-8.222a2.173 2.173 0 0 0-.632-1.532zm-6.724 2.4H9.443v-4.33h5.193zm5.193 0a.865.865 0 1 1 .865-.865.868.868 0 0 1-.865.865z" transform="translate(-7.712 -6.427)" style="fill:#f7fafd"/>
</svg>
