<svg xmlns="http://www.w3.org/2000/svg" width="22.525" height="17.516" viewBox="0 0 22.525 17.516">
    <path data-name="Icon awesome-home" d="m10.963 6.8-7.21 5.935v6.409a.626.626 0 0 0 .626.626l4.382-.011a.626.626 0 0 0 .623-.626V15.39a.626.626 0 0 1 .626-.626h2.5a.626.626 0 0 1 .626.626v3.74a.626.626 0 0 0 .626.628l4.38.012a.626.626 0 0 0 .626-.626v-6.413L11.561 6.8a.477.477 0 0 0-.598 0zm11.388 4.036-3.269-2.697V2.723a.469.469 0 0 0-.469-.469h-2.19a.469.469 0 0 0-.469.469v2.839l-3.5-2.88a1.877 1.877 0 0 0-2.385 0l-9.9 8.152a.469.469 0 0 0-.063.661l1 1.212a.469.469 0 0 0 .661.064l9.2-7.576a.477.477 0 0 1 .6 0l9.2 7.576a.469.469 0 0 0 .661-.063l1-1.212a.469.469 0 0 0-.066-.662z" transform="translate(.001 -2.254)" style="fill:#fff"/>
</svg>
