<svg xmlns="http://www.w3.org/2000/svg" width="13.179" height="15.062" viewBox="0 0 13.179 15.062">
    <path data-name="Icon awesome-hospital" d="M13.179 14.473v.588H0v-.588a.353.353 0 0 1 .353-.353h.588V3.53a.706.706 0 0 1 .706-.706h2.589V.706A.706.706 0 0 1 4.942 0h3.295a.706.706 0 0 1 .706.706v2.118h2.589a.706.706 0 0 1 .706.706v10.59h.588a.353.353 0 0 1 .353.353zM9.061 5.648H7.884A.353.353 0 0 0 7.531 6v1.178a.353.353 0 0 0 .353.353h1.177a.353.353 0 0 0 .353-.353V6a.353.353 0 0 0-.353-.352zM4.118 7.531H5.3a.353.353 0 0 0 .353-.353V6a.353.353 0 0 0-.353-.352H4.118A.353.353 0 0 0 3.765 6v1.178a.353.353 0 0 0 .353.353zm3.06 3.769H6a.353.353 0 0 0-.353.353v2.467h1.884v-2.471a.353.353 0 0 0-.353-.349zm1.883-2.828H7.884a.353.353 0 0 0-.353.353V10a.353.353 0 0 0 .353.353h1.177A.353.353 0 0 0 9.414 10V8.825a.353.353 0 0 0-.353-.353zm-3.412.353a.353.353 0 0 0-.349-.353H4.118a.353.353 0 0 0-.353.353V10a.353.353 0 0 0 .353.353H5.3A.353.353 0 0 0 5.648 10zm-.294-6h.765v.765a.177.177 0 0 0 .177.177h.588a.177.177 0 0 0 .177-.177v-.766h.765A.177.177 0 0 0 8 2.648v-.589a.177.177 0 0 0-.177-.177H7.06v-.764a.177.177 0 0 0-.176-.177H6.3a.177.177 0 0 0-.177.177v.765h-.769a.177.177 0 0 0-.177.177v.588a.177.177 0 0 0 .177.176z" style="fill:#f7fafd"/>
</svg>
