<svg xmlns="http://www.w3.org/2000/svg" width="14.079" height="13.786" viewBox="0 0 14.079 13.786">
    <path data-name="Icon map-doctor" d="M13.017 4.24h-1.444V2.707A1.967 1.967 0 0 0 9.609.72H5.91a1.967 1.967 0 0 0-1.963 1.987V4.24H2.5A1.749 1.749 0 0 0 .72 5.981v6.749a1.779 1.779 0 0 0 1.78 1.776h10.517a1.779 1.779 0 0 0 1.783-1.777V5.981a1.75 1.75 0 0 0-1.783-1.741zM5.12 2.707a.847.847 0 0 1 .791-.814h3.7a.848.848 0 0 1 .79.814V4.24H5.12zm5.866 7.986H8.933v2.053H6.586v-2.053H4.533V8.346h2.053V6.293h2.347v2.053h2.053v2.347z" transform="translate(-.72 -.72)" style="fill:#f7fafd"/>
</svg>
