<svg xmlns="http://www.w3.org/2000/svg" width="11.982" height="15.578" viewBox="0 0 11.982 15.578">
    <path data-name="Icon ionic-ios-water" d="M16.336 7.059a16.745 16.745 0 0 0-3.4-3.617.32.32 0 0 0-.389 0 16.539 16.539 0 0 0-3.389 3.61 11.359 11.359 0 0 0-2.4 6.4v.139a4.894 4.894 0 0 0 .408 1.951 5.261 5.261 0 0 0 .569.985 6.181 6.181 0 0 0 5.01 2.426c3.31 0 5.995-2.4 5.995-5.362a11.4 11.4 0 0 0-2.404-6.532zm-3.22 9.9H13.1a.328.328 0 0 1-.1-.64 4.662 4.662 0 0 0 3.235-3.026.326.326 0 0 1 .629.116v.052a3.633 3.633 0 0 1-3.748 3.495z" transform="translate(-6.75 -3.374)" style="fill:#f7fafd"/>
</svg>
