<svg xmlns="http://www.w3.org/2000/svg" width="18" height="18" viewBox="0 0 18 18">
    <g data-name="Group 2117">
        <g data-name="Group 2084" transform="translate(-402 -486.608)">
            <circle data-name="Ellipse 47" cx="9" cy="9" r="9" transform="translate(402 486.608)" style="fill:#fff"/>
            <path data-name="Icon awesome-hand-paper" d="M7.984 2.5a.794.794 0 0 0-.8.8V5h-.153V1.558a.794.794 0 0 0-.8-.8.781.781 0 0 0-.766.781V5h-.153V.8a.794.794 0 0 0-.8-.8.781.781 0 0 0-.762.781V5h-.156V1.578a.794.794 0 0 0-.8-.8.781.781 0 0 0-.766.781v4.613l-.618-.85a.781.781 0 1 0-1.264.919L2.6 9.614a.937.937 0 0 0 .761.386H7.22a.938.938 0 0 0 .913-.723l.518-2.2a3.75 3.75 0 0 0 .1-.859V3.281a.781.781 0 0 0-.767-.781z" transform="translate(406.625 490.608)" style="fill:#117074"/>
        </g>
    </g>
</svg>
