<svg width="36" height="36" viewBox="0 0 36 36" fill="none" xmlns="http://www.w3.org/2000/svg">
<!-- <path d="M18.87 21.07L16.33 18.56L16.36 18.53C18.1 16.59 19.34 14.36 20.07 12H23V10H16V8H14V10H7V11.99H18.17C17.5 13.92 16.44 15.75 15 17.35C14.07 16.32 13.3 15.19 12.69 14H10.69C11.42 15.63 12.42 17.17 13.67 18.56L8.58 23.58L10 25L15 20L18.11 23.11L18.87 21.07Z" fill="#fff"/> -->
<path d="M29.488 26.92C28.9653 27.144 28.3787 27.32 27.728 27.448C27.088 27.5867 26.4053 27.656 25.68 27.656C24.656 27.656 23.7493 27.5067 22.96 27.208C22.1813 26.92 21.5787 26.4987 21.152 25.944C20.7253 25.4 20.512 24.7493 20.512 23.992C20.512 23.3307 20.6987 22.712 21.072 22.136C21.4453 21.5707 22.0053 21.048 22.752 20.568C22.2613 20.1733 21.872 19.7093 21.584 19.176C21.3067 18.6427 21.168 18.1093 21.168 17.576C21.168 16.9893 21.3067 16.4827 21.584 16.056C21.872 15.6293 22.256 15.304 22.736 15.08C23.2267 14.856 23.776 14.744 24.384 14.744C24.768 14.744 25.1627 14.792 25.568 14.888C25.9733 14.984 26.3147 15.1013 26.592 15.24L26.416 16.616L26.352 16.664C25.6587 16.408 25.0613 16.28 24.56 16.28C24.048 16.28 23.6533 16.4027 23.376 16.648C23.0987 16.8933 22.96 17.2347 22.96 17.672C22.96 18.024 23.0613 18.3973 23.264 18.792C23.4773 19.176 23.776 19.512 24.16 19.8C24.992 19.416 25.952 19.064 27.04 18.744L27.136 18.776L27.024 20.424C25.36 20.8507 24.1173 21.32 23.296 21.832C22.4747 22.3547 22.064 22.9787 22.064 23.704C22.064 24.1947 22.224 24.6213 22.544 24.984C22.8747 25.3467 23.344 25.624 23.952 25.816C24.56 26.008 25.28 26.104 26.112 26.104C26.624 26.104 27.1413 26.0667 27.664 25.992C28.1973 25.9173 28.6773 25.816 29.104 25.688L29.232 25.768L29.488 26.92Z" fill="#fff"/>
</svg>
