<svg width="36" height="36" viewBox="0 0 36 36" fill="none" xmlns="http://www.w3.org/2000/svg">
<g clip-path="url(#clip0_1086_3209)">
<path d="M14.6799 4C12.1987 4 9.71728 4.94354 7.82997 6.83035C4.05614 10.6042 4.05614 16.7557 7.82997 20.5296C11.363 24.0621 16.9684 24.2701 20.7662 21.1878L21.6972 22.1188C21.6446 22.3081 21.6323 22.4903 21.6614 22.6527C21.6904 22.8151 21.76 22.9539 21.8654 23.0595L28.6219 29.816C28.815 30.0091 29.1158 30.0788 29.4581 30.0096C29.8004 29.9405 30.1561 29.7382 30.447 29.4473C30.7378 29.1565 30.9401 28.8008 31.0092 28.4585C31.0784 28.1162 31.0087 27.8154 30.8156 27.6222L24.0594 20.866C23.9539 20.7604 23.815 20.6906 23.6524 20.6616C23.4899 20.6325 23.3075 20.6447 23.118 20.6975L22.187 19.7665C25.2693 15.9684 25.062 10.3629 21.5293 6.83035C19.6425 4.94354 17.1611 4 14.6799 4ZM14.6799 6.13936C16.6057 6.13936 18.5318 6.87721 20.0075 8.35292C20.7144 9.05769 21.2744 9.89574 21.655 10.8185H16.8289V12.3473H22.1005C22.3337 13.6419 22.2235 14.9749 21.7811 16.2136H16.8289V17.7419H21.0266C20.733 18.1991 20.3914 18.6234 20.0075 19.0078C19.309 19.7093 18.4788 20.266 17.5646 20.6459C16.6504 21.0257 15.6701 21.2213 14.6802 21.2213C13.6902 21.2213 12.7099 21.0257 11.7957 20.6459C10.8815 20.266 10.0513 19.7093 9.35279 19.0078C8.65124 18.3093 8.09456 17.4791 7.71472 16.5648C7.33487 15.6506 7.13934 14.6704 7.13934 13.6804C7.13934 12.6904 7.33487 11.7101 7.71472 10.7959C8.09456 9.88164 8.65124 9.05143 9.35279 8.35292C10.8282 6.87721 12.7541 6.13936 14.6796 6.13936H14.6799ZM11.666 9.40424C11.1128 9.40424 10.6473 9.87002 10.6473 10.423V12.7428C10.6473 13.2958 11.1128 13.7613 11.666 13.7613H13.9858C14.5388 13.7613 15.0043 13.2958 15.0043 12.7428V10.423C15.0043 9.87002 14.5388 9.4045 13.9858 9.4045H11.666V9.40424ZM11.949 10.706H13.7025V12.4595H11.9488V10.7063L11.949 10.706ZM11.666 14.7996C11.1128 14.7996 10.6473 15.2652 10.6473 15.8182V18.1379C10.6473 18.6909 11.1128 19.1565 11.666 19.1565H13.9858C14.5388 19.1565 15.0043 18.6909 15.0043 18.1379V15.8182C15.0043 15.2652 14.5388 14.7996 13.9858 14.7996H11.666ZM11.949 16.1014H13.7025V17.8547H11.9488V16.1014H11.949Z" fill="#fff"/>
</g>
<defs>
<clipPath id="clip0_1086_3209">
<rect width="27" height="27" fill="white" transform="translate(5 4)"/>
</clipPath>
</defs>
</svg>
