<svg width="27" height="27" viewBox="0 0 27 27" fill="none" xmlns="http://www.w3.org/2000/svg">
<path d="M17.7179 17.3599L17.8632 17.5H18.065H19.0426L26.0282 24.4996L24.4996 26.0282L17.5 19.0426V18.065V17.8632L17.3599 17.7179L16.9549 17.2979L16.6271 16.958L16.2691 17.2658C14.6462 18.661 12.5407 19.5 10.25 19.5C5.14114 19.5 1 15.3589 1 10.25C1 5.14114 5.14114 1 10.25 1C15.3589 1 19.5 5.14114 19.5 10.25C19.5 12.5407 18.661 14.6462 17.2658 16.2691L16.958 16.6271L17.2979 16.9549L17.7179 17.3599ZM3 10.25C3 14.2611 6.23886 17.5 10.25 17.5C14.2611 17.5 17.5 14.2611 17.5 10.25C17.5 6.23886 14.2611 3 10.25 3C6.23886 3 3 6.23886 3 10.25Z" fill="#fff" stroke="#fff"/>
</svg>
