<svg width="24" height="24" viewBox="0 0 24 24" fill="none" xmlns="http://www.w3.org/2000/svg">
<path d="M23.64 10.155L23.505 9.62997H12.345V14.37H19.02C18.6475 15.8163 17.8008 17.096 16.6151 18.0043C15.4295 18.9126 13.9735 19.3969 12.48 19.38C10.5312 19.3639 8.65882 18.6203 7.23 17.295C6.52763 16.6027 5.96868 15.7786 5.58517 14.8701C5.20166 13.9615 5.00111 12.9862 4.995 12C5.01767 10.0192 5.80189 8.12309 7.185 6.70497C8.59365 5.37051 10.4647 4.63393 12.405 4.64997C14.0668 4.66276 15.6669 5.28145 16.905 6.38997L20.205 2.99997C18.03 1.0595 15.2148 -0.00890916 12.3 -2.86385e-05C10.6966 -0.00955493 9.10694 0.296839 7.62191 0.901661C6.13688 1.50648 4.78552 2.39788 3.645 3.52497C1.47555 5.77839 0.252405 8.77767 0.227293 11.9056C0.20218 15.0335 1.37701 18.052 3.51 20.34C4.69177 21.5174 6.09633 22.4474 7.64162 23.0758C9.1869 23.7043 10.8419 24.0184 12.51 24C14.0227 24.0112 15.5219 23.7152 16.9168 23.1299C18.3117 22.5446 19.5732 21.6822 20.625 20.595C22.6889 18.3256 23.8054 15.3519 23.745 12.285C23.7612 11.5734 23.7261 10.8615 23.64 10.155Z" fill="#fff"/>
</svg>
