<svg xmlns="http://www.w3.org/2000/svg" width="18" height="14.089" viewBox="0 0 18 14.089">
    <defs>
        <style>
            .cls-1{fill:#fff}
        </style>
    </defs>
    <g id="Group_2052" data-name="Group 2052" transform="translate(-393.461 -728)">
        <path id="Icon_awesome-sign-out-alt" data-name="Icon awesome-sign-out-alt" class="cls-1" d="M0 18.147v-1.468a.446.446 0 0 1 .449-.44H3.59a1.184 1.184 0 0 0 1.2-1.174V8.022a1.184 1.184 0 0 0-1.2-1.174H.449A.446.446 0 0 1 0 6.408V4.94a.446.446 0 0 1 .449-.44H3.59a3.557 3.557 0 0 1 3.59 3.522v7.043a3.557 3.557 0 0 1-3.59 3.522H.449a.446.446 0 0 1-.449-.44z" transform="translate(404.281 723.5)"/>
        <path id="Icon_awesome-sign-out-alt-2" data-name="Icon awesome-sign-out-alt" class="cls-1" d="m22.456 12.166-6.126 6.163a.876.876 0 0 1-1.5-.624v-3.521H9.875A.876.876 0 0 1 9 13.3V9.782a.876.876 0 0 1 .875-.88h4.959V5.38a.876.876 0 0 1 1.5-.624l6.126 6.163a.892.892 0 0 1-.004 1.247z" transform="translate(384.461 723.501)"/>
    </g>
</svg>
