<svg width="29" height="28" viewBox="0 0 29 28" fill="none" xmlns="http://www.w3.org/2000/svg">
<path d="M7.5 20C8.325 20 9 20.675 9 21.5C9 23.15 7.65 24.5 6 24.5C5.745 24.5 5.505 24.47 5.25 24.425C5.715 23.6 6 22.61 6 21.5C6 20.675 6.675 20 7.5 20ZM25.005 0.5C24.615 0.5 24.24 0.65 23.94 0.935L10.5 14.375L14.625 18.5L28.065 5.06C28.65 4.475 28.65 3.53 28.065 2.945L26.055 0.935C25.755 0.635 25.38 0.5 25.005 0.5ZM7.5 17C5.01 17 3 19.01 3 21.5C3 23.465 1.26 24.5 0 24.5C1.38 26.33 3.735 27.5 6 27.5C9.315 27.5 12 24.815 12 21.5C12 19.01 9.99 17 7.5 17Z" fill="#fff"/>
</svg>
