<svg width="28" height="28" viewBox="0 0 28 28" fill="none" xmlns="http://www.w3.org/2000/svg">
<path d="M5.81 3.5C5.9 4.835 6.125 6.14 6.485 7.385L4.685 9.185C4.07 7.385 3.68 5.48 3.545 3.5H5.81ZM20.6 21.53C21.875 21.89 23.18 22.115 24.5 22.205V24.44C22.52 24.305 20.615 23.915 18.8 23.315L20.6 21.53ZM7.25 0.5H2C1.175 0.5 0.5 1.175 0.5 2C0.5 16.085 11.915 27.5 26 27.5C26.825 27.5 27.5 26.825 27.5 26V20.765C27.5 19.94 26.825 19.265 26 19.265C24.14 19.265 22.325 18.965 20.645 18.41C20.495 18.35 20.33 18.335 20.18 18.335C19.79 18.335 19.415 18.485 19.115 18.77L15.815 22.07C11.57 19.895 8.09 16.43 5.93 12.185L9.23 8.885C9.65 8.465 9.77 7.88 9.605 7.355C9.05 5.675 8.75 3.875 8.75 2C8.75 1.175 8.075 0.5 7.25 0.5Z" fill="#fff"/>
</svg>
