<svg xmlns="http://www.w3.org/2000/svg"  width="24" height="24" viewBox="0 0 6.947 10.488">
    <g data-name="Group 2164">
        <path data-name="Path 1273" d="M168.041 7.782h-.765a.233.233 0 0 1-.253-.241 7.871 7.871 0 0 1 .154-1.966 1.778 1.778 0 0 1 .472-.847c.21-.223.437-.429.663-.63q.369-.332.755-.647a.885.885 0 0 0-.189-1.5 1.47 1.47 0 0 0-2.056.725 3.462 3.462 0 0 0-.127.395c-.049.183-.132.248-.322.226-.5-.059-1-.121-1.5-.183a.261.261 0 0 1-.248-.315 3.065 3.065 0 0 1 2.538-2.71 4.361 4.361 0 0 1 2.645.246A2.849 2.849 0 0 1 171.418 2a2.222 2.222 0 0 1-.348 2.217 8 8 0 0 1-1.21 1.183c-.141.121-.274.25-.42.369a.945.945 0 0 0-.345.767c0 .32-.02.64-.028.96a.258.258 0 0 1-.286.283h-.74z" transform="translate(-164.624 .008)" style="fill:#fff"/>
        <path data-name="Path 1274" d="M294.871 448.553a1.05 1.05 0 1 1-.3-.745 1.05 1.05 0 0 1 .3.745z" transform="translate(-290.37 -439.106)" style="fill:#fff"/>
    </g>
</svg>
