<svg data-name="icons/dark/setting" xmlns="http://www.w3.org/2000/svg" width="24" height="24" viewBox="0 0 24 24">
    <path style="fill:none" d="M0 0h24v24H0z"/>
    <path d="M4.176 16.976a2.255 2.255 0 0 0 4.267 0h9.3a.762.762 0 1 0 0-1.524h-9.3a2.255 2.255 0 0 0-4.267 0h-.914a.762.762 0 0 0 0 1.524zm2.9-.762a.72.72 0 0 1-.762.762.762.762 0 0 1 0-1.524.72.72 0 0 1 .762.762zm1.3-10.667a2.255 2.255 0 0 0 4.267 0h5.1a.72.72 0 0 0 .762-.762.72.72 0 0 0-.762-.762h-5.1a2.255 2.255 0 0 0-4.267 0h-5.1a.72.72 0 0 0-.762.762.72.72 0 0 0 .762.762zm2.9-.762a.762.762 0 1 1-1.524 0 .762.762 0 1 1 1.524 0zm-8 6.476h9.3a2.255 2.255 0 0 0 4.267 0h.914a.762.762 0 1 0 0-1.524h-.914a2.255 2.255 0 0 0-4.267 0h-9.3a.762.762 0 0 0 0 1.524zm12.19-.762a.762.762 0 1 1-.762-.762.72.72 0 0 1 .762.762z" transform="translate(1.5 1.5)" style="fill:#fff"/>
</svg>
