<svg xmlns="http://www.w3.org/2000/svg" width="21.299" height="14.199" viewBox="0 0 21.299 14.199">
    <path data-name="Icon awesome-eye" d="M21.17 11.06A11.86 11.86 0 0 0 10.65 4.5 11.862 11.862 0 0 0 .129 11.06a1.2 1.2 0 0 0 0 1.079A11.86 11.86 0 0 0 10.65 18.7a11.862 11.862 0 0 0 10.521-6.56 1.2 1.2 0 0 0-.001-1.08zm-10.52 5.864a5.325 5.325 0 1 1 5.324-5.324 5.325 5.325 0 0 1-5.324 5.324zm0-8.875a3.524 3.524 0 0 0-.936.14 1.769 1.769 0 0 1-2.474 2.475 3.542 3.542 0 1 0 3.41-2.614z" transform="translate(0 -4.5)" style="fill:#fff"/>
</svg>
