<svg xmlns="http://www.w3.org/2000/svg" width="20.001" height="20.001" viewBox="0 0 20.001 20.001">
    <path data-name="Icon awesome-map-signs" d="m19.818 3.308-1.692-1.692a1.25 1.25 0 0 0-.884-.366h-5.991V.625A.625.625 0 0 0 10.626 0H9.375a.625.625 0 0 0-.625.625v.625H2.188a.938.938 0 0 0-.938.938v3.125a.938.938 0 0 0 .938.938h15.054a1.251 1.251 0 0 0 .884-.366l1.692-1.692a.625.625 0 0 0 0-.885zM8.75 19.376a.625.625 0 0 0 .625.624h1.25a.625.625 0 0 0 .625-.625V15h-2.5zM17.813 8.75h-6.562V7.5H8.75v1.25H2.759a1.251 1.251 0 0 0-.884.366L.183 10.809a.625.625 0 0 0 0 .884l1.692 1.692a1.25 1.25 0 0 0 .884.366h15.054a.938.938 0 0 0 .938-.938V9.688a.938.938 0 0 0-.938-.938z" style="fill:#fff"/>
</svg>
