<svg xmlns="http://www.w3.org/2000/svg" width="21.316" height="23.981" viewBox="0 0 21.316 23.981">
    <path data-name="Icon material-traffic" d="M27.316 13.826h-4v-1.519a5.329 5.329 0 0 0 4-5.143h-4V5.832A1.336 1.336 0 0 0 21.987 4.5H11.329A1.336 1.336 0 0 0 10 5.832v1.333H6a5.329 5.329 0 0 0 4 5.143v1.519H6a5.329 5.329 0 0 0 4 5.143v1.519H6a5.329 5.329 0 0 0 4 5.143v1.519a1.336 1.336 0 0 0 1.332 1.332h10.655a1.336 1.336 0 0 0 1.332-1.332V25.63a5.329 5.329 0 0 0 4-5.143h-4v-1.519a5.329 5.329 0 0 0 4-5.143zm-10.658 11.99a2.665 2.665 0 1 1 2.665-2.665 2.664 2.664 0 0 1-2.665 2.665zm0-6.661a2.665 2.665 0 1 1 2.665-2.665 2.664 2.664 0 0 1-2.665 2.665zm0-6.661a2.665 2.665 0 1 1 2.665-2.665 2.664 2.664 0 0 1-2.665 2.665z" transform="translate(-6 -4.5)" style="fill:#fff"/>
</svg>
